<!--?xml version="1.0" standalone="no"?-->
              <svg id="sw-js-blob-svg" viewBox="0 0 100 100" xmlns="http://www.w3.org/2000/svg" version="1.1">
                    <defs> 
                        <linearGradient id="sw-gradient" x1="0" x2="1" y1="1" y2="0">
                            <stop id="stop1" stop-color="rgba(24, 135, 133, 1)" offset="0%"></stop>
                            <stop id="stop2" stop-color="rgba(24, 135, 133, 1)" offset="100%"></stop>
                        </linearGradient>
                    </defs>
                <path fill="url(#sw-gradient)" d="M22.7,-36C27.6,-32.1,28.5,-22.8,31.6,-14.8C34.6,-6.8,39.8,-0.2,40.9,7.3C42,14.7,39,22.9,33.8,29.8C28.6,36.6,21.3,42.2,14,41.3C6.8,40.5,-0.5,33.4,-7.3,29.3C-14.1,25.3,-20.6,24.3,-26.6,21C-32.6,17.7,-38.2,12,-37.8,6.2C-37.4,0.5,-31,-5.4,-25.5,-9.4C-20.1,-13.4,-15.8,-15.6,-11.7,-19.8C-7.6,-24.1,-3.8,-30.4,2.5,-34.4C8.9,-38.4,17.8,-39.9,22.7,-36Z" width="100%" height="100%" transform="translate(50 50)" stroke-width="0" style="transition: all 0.3s ease 0s;" stroke="url(#sw-gradient)"></path>
              </svg>